<?xml version="1.0" standalone="no"?>
<!DOCTYPE svg PUBLIC "-//W3C//DTD SVG 20010904//EN"
 "http://www.w3.org/TR/2001/REC-SVG-20010904/DTD/svg10.dtd">
<svg version="1.0" xmlns="http://www.w3.org/2000/svg"
 width="225.000000pt" height="225.000000pt" viewBox="0 0 225.000000 225.000000"
 preserveAspectRatio="xMidYMid meet">
<metadata>
Created by potrace 1.14, written by Peter Selinger 2001-2017
</metadata>
<g transform="translate(0.000000,225.000000) scale(0.100000,-0.100000)"
fill="#000000" stroke="none">
<path d="M0 1125 l0 -1125 1125 0 1125 0 0 1125 0 1125 -1125 0 -1125 0 0
-1125z m657 915 l176 -80 323 0 324 0 0 -815 0 -815 -112 1 -113 0 -51 67
c-28 37 -59 88 -69 115 -10 26 -20 47 -24 47 -3 0 -39 -34 -80 -75 -41 -41
-79 -75 -85 -75 -6 0 26 37 72 83 45 45 82 89 82 97 -1 8 -6 25 -13 36 l-12
22 -114 -44 c-63 -25 -116 -42 -119 -39 -8 7 -8 7 116 55 61 24 112 44 112 45
0 1 -5 16 -11 34 l-11 31 -120 0 c-81 0 -117 3 -113 11 4 6 47 10 108 9 56 -1
105 -1 109 -1 4 1 0 18 -9 38 -77 181 -549 1333 -546 1333 2 0 83 -36 180 -80z
m823 -1825 l0 -65 -44 0 c-41 0 -46 3 -83 53 -22 28 -43 58 -47 65 -5 9 14 12
83 12 l91 0 0 -65z"/>
<path d="M620 1972 c0 -8 61 -164 67 -171 5 -7 93 82 93 94 0 6 -36 27 -80 47
-44 20 -80 33 -80 30z"/>
<path d="M1007 1431 c-37 -62 -10 -145 84 -264 l54 -68 3 86 3 85 -57 95 c-31
52 -59 95 -63 95 -4 0 -14 -13 -24 -29z"/>
</g>
</svg>
